<svg xmlns="http://www.w3.org/2000/svg" viewBox="0 0 34.25 34.25">
  <circle
    cx="17.13"
    cy="17.13"
    r="14.13"
    style="fill: none;"
  />
  <path
    d="M44.13,40.34a17,17,0,0,0,0-20V16.2H39.92a17.07,17.07,0,0,0-19.65.24H16.12v4.22a17.11,17.11,0,0,0,0,19.33v4.47h4.47a17.11,17.11,0,0,0,19.33,0h4.21V40.34Zm-28-10A14.13,14.13,0,1,1,30.25,44.46,14.13,14.13,0,0,1,16.12,30.33Z"
    transform="translate(-13.13 -13.2)"
  />
  <path
    d="M33.42,23.22A1.18,1.18,0,0,1,34,24.51l-1.47,9-2.39-9.82-2.39,9.82-1.47-9a1.18,1.18,0,0,1,.58-1.29H21.61a5.07,5.07,0,0,1,1.56,2.62c1.11,5.84,1.26,6.84,2,11.7a3,3,0,0,1-.63,1.79h5a3.63,3.63,0,0,1-.24-1.4c0.21-1.32,1-4.94,1-4.94v0c0.31,1.86.6,3.58,0.81,4.9a3.63,3.63,0,0,1-.24,1.4h5a3,3,0,0,1-.63-1.79c0.73-4.87.89-5.87,2-11.7a5.07,5.07,0,0,1,1.56-2.62H33.42Z"
    transform="translate(-13.13 -13.2)"
  />
</svg>